<?xml version="1.0" encoding="utf-8"?>
<!-- Generator: Adobe Illustrator 27.0.0, SVG Export Plug-In . SVG Version: 6.00 Build 0)  -->
<svg version="1.1" id="Layer_1" xmlns="http://www.w3.org/2000/svg" xmlns:xlink="http://www.w3.org/1999/xlink" x="0px" y="0px"
	 viewBox="0 0 575.9 124.8" style="enable-background:new 0 0 575.9 124.8;" xml:space="preserve">
<style type="text/css">
	.st0{fill:url(#SVGID_1_);}
	.st1{fill:none;stroke:#000000;stroke-miterlimit:10;}
</style>
<linearGradient id="SVGID_1_" gradientUnits="userSpaceOnUse" x1="0" y1="-213.5169" x2="140.9528" y2="-213.5169" gradientTransform="matrix(1 0 0 -1 0 -151.1158)">
	<stop  offset="0" style="stop-color:#46B4E8"/>
	<stop  offset="0.5" style="stop-color:#42D7DF"/>
	<stop  offset="1" style="stop-color:#46A7ED"/>
</linearGradient>
<path class="st0" d="M140.5,0.8c-0.4-0.6-1.2-0.9-1.9-0.7L1.6,26c0,0-0.1,0-0.1,0c-0.1,0-0.1,0-0.2,0.1c-0.1,0-0.1,0-0.1,0.1
	c-0.1,0-0.1,0.1-0.2,0.1c-0.1,0-0.1,0-0.1,0.1c-0.1,0-0.1,0.1-0.1,0.1c0,0-0.1,0.1-0.1,0.1c0,0-0.1,0.1-0.1,0.1c0,0-0.1,0.1-0.1,0.1
	c0,0,0,0,0,0.1c0,0,0,0.1-0.1,0.1c0,0-0.1,0.1-0.1,0.2c0,0.1-0.1,0.1-0.1,0.2c0,0,0,0.1-0.1,0.2c0,0.1,0,0.1,0,0.2c0,0,0,0.1,0,0.2
	c0,0.1,0,0.1,0,0.2c0,0,0,0.1,0,0.1c0,0,0,0,0,0c0,0.1,0,0.1,0,0.2c0,0,0,0.1,0,0.1c0,0.1,0,0.1,0.1,0.2c0,0,0,0.1,0.1,0.1
	c0,0.1,0.1,0.1,0.1,0.2c0,0,0.1,0.1,0.1,0.1c0,0,0.1,0.1,0.1,0.1c0,0,0.1,0.1,0.1,0.1c0,0,0,0,0,0l90.5,94.7
	c0.4,0.4,0.9,0.6,1.4,0.6c0.1,0,0.3,0,0.4,0c0.6-0.1,1.2-0.6,1.4-1.2l10.9-28.2c5.4,3.3,9.9,6.1,13.6,8.4c8.9,5.5,12.7,7.9,14.9,7.9
	c0.5,0,0.9-0.1,1.3-0.3c1.4-0.8,1.5-2.8,1.5-4.8c0-2.9-0.9-9.3-2.1-18.2c-2.2-15.5-5.1-36.3-5.4-54.1l12.1-31.4
	C141.1,2.2,141,1.4,140.5,0.8L140.5,0.8z M91.7,119.1l-80-83.7L44,49.9l63,29.5L91.7,119.1z M123.5,36.8l-61.8-5.5l-42.4-4.5
	L135.8,4.7L123.5,36.8L123.5,36.8z"/>
<g>
	<g>
		<path d="M575.9,19.3l-2,11.4c0,0-10.8,0-15.4,0c-0.3,2-0.7,3.9-1.1,5.9c4.3,0,8.5,0,12.8,0c-0.5,3.5-1,7-1.8,10.4
			c-4.2-0.1-8.5-0.1-12.8-0.1c-0.2,1.8-0.5,3.5-0.7,5.3c5.2,0,10.4,0,15.5,0c-0.8,3.8-1.3,7.6-2.1,11.3c-9.4,0-18.8,0.1-28.2,0
			c0.7-3,1.1-6.1,1.5-9.2l0.2-1.2l2.9-17l0-0.2l0.8-5c0.7-3.8,1.4-7.7,2-11.5C557.1,19.4,575.9,19.3,575.9,19.3L575.9,19.3z"/>
		<path d="M550.2,89v5.4c0,3.2-2.5,5.8-5.5,5.8h-7.4c-3.5,0-6.2-3.3-5.4-7.1c0.5-2.7,3-4.6,5.6-4.6h6.7v4.2h-6.5
			c-0.8,0-1.4,0.7-1.4,1.6s0.6,1.6,1.4,1.6h6c0.8,0,1.5-0.7,1.5-1.6V89c0-0.9-0.7-1.6-1.5-1.6H536v-4.2h8.6
			C547.7,83.2,550.2,85.8,550.2,89z"/>
		<polygon points="546.2,19.4 545.6,22.7 521.3,19.4 		"/>
		<polygon points="545.1,25.7 544.5,29.1 520.1,25.7 		"/>
		<polygon points="543.9,33.2 543.4,36.6 519,33.2 		"/>
		<polygon points="542.8,39.6 542.2,42.9 517.9,39.6 		"/>
		<polygon points="541.7,45.9 541.1,49.3 516.7,45.9 		"/>
		<polygon points="540.5,52.3 540,55.7 515.6,52.3 		"/>
		<polygon points="539.4,59.8 538.8,63.1 514.5,59.8 		"/>
		<path d="M529.9,91.4v8.7h-4v-8.7c0-1.6-1.3-3-2.8-3h-7.3v11.7h-4V86.3c0-1.2,0.9-2.1,2-2.1h9.3C526.8,84.2,529.9,87.4,529.9,91.4
			L529.9,91.4z"/>
		<path d="M498.9,19.3c4.3,0,8.6,0,12.9,0c-2.5,14.7-5.2,29.3-7.5,44.1c-4,0.1-8,0.1-12,0c-2.5-6.5-6.3-12.4-7.5-19.4
			c-1.4,6.4-2.1,13-3.5,19.4c-4.1,0-8.2,0-12.3,0c2.1-14.7,4.8-29.4,7-44.1c4-0.2,8-0.1,12.1-0.1c2.6,6.1,5.8,12,7.5,18.6
			C497,31.7,497.8,25.5,498.9,19.3L498.9,19.3z"/>
		<rect x="502.6" y="83.2" width="4" height="17"/>
		<path d="M504.5,76.1c1.1,0,2,1,2,2.1s-0.9,2.1-2,2.1s-2-1-2-2.1S503.3,76.1,504.5,76.1z"/>
		<path d="M497.5,90.6v9.5h-4v-9.5c0-1.8-1.4-3.2-3.1-3.2h-5v-4.2h5C494.4,83.2,497.5,86.5,497.5,90.6z"/>
		<rect x="480.4" y="75.7" width="4" height="24.5"/>
		<path d="M475.3,95.9v4.3h-12.1c-3.9,0-7.1-3.4-7.1-7.5v-7.4c0-4.1,3.2-7.5,7.1-7.5h12.1v4.2h-12.1c-1.7,0-3.1,1.5-3.1,3.2v7.4
			c0,1.8,1.4,3.2,3.1,3.2L475.3,95.9L475.3,95.9z"/>
		<polygon points="474.6,19.4 474,22.7 449.6,19.4 		"/>
		<polygon points="473.4,25.7 472.9,29.1 448.5,25.7 		"/>
		<polygon points="472.3,33.2 471.7,36.6 447.4,33.2 		"/>
		<polygon points="471.2,39.6 470.6,42.9 446.2,39.6 		"/>
		<polygon points="470,45.9 469.5,49.3 445.1,45.9 		"/>
		<polygon points="468.9,52.3 468.3,55.7 444,52.3 		"/>
		<polygon points="467.8,59.8 467.2,63.1 442.8,59.8 		"/>
		<path d="M440.9,91.4v8.7h-4v-8.7c0-1.6-1.3-3-2.8-3h-7.3v11.7h-4V86.3c0-1.2,0.9-2.1,2-2.1h9.3C437.8,84.2,440.9,87.4,440.9,91.4
			L440.9,91.4z"/>
		<polygon points="427,19.4 426.4,22.7 402,19.4 		"/>
		<polygon points="425.8,25.7 425.2,29.1 400.9,25.7 		"/>
		<polygon points="424.7,33.2 424.1,36.6 399.8,33.2 		"/>
		<path d="M421.3,63.4c2.3-14.7,4.7-29.4,7.2-44.1c4.2,0,8.5,0,12.7,0c-2.5,14.7-5,29.4-7.6,44.1C429.5,63.4,425.4,63.5,421.3,63.4
			L421.3,63.4z"/>
		<polygon points="423.6,39.6 423,42.9 398.6,39.6 		"/>
		<polygon points="422.4,45.9 421.9,49.3 397.5,45.9 		"/>
		<polygon points="421.3,52.3 420.7,55.7 396.4,52.3 		"/>
		<polygon points="420.2,59.8 419.6,63.1 395.2,59.8 		"/>
		<rect x="413.6" y="77.8" width="4" height="22.3"/>
		<path d="M393.4,83.2c3.5,0,6.2,3.3,5.4,7.1c-0.5,2.7-3,4.6-5.6,4.6h-7v-4.2h7.5c0.8-0.1,1.5-0.8,1.5-1.7s-0.7-1.6-1.5-1.5h-6.9
			c-0.8-0.1-1.6,1.5-1.6,1.5v5.4c0,0.9,0.7,1.6,1.5,1.6h6.6v4.3h-6.6c-3.1,0-5.5-2.6-5.5-5.8V89c0-3.2,2.5-5.8,5.5-5.8L393.4,83.2
			L393.4,83.2z"/>
		<path d="M379.6,52.3c4.2-0.1,8.5-0.1,12.7-0.1c-0.7,3.8-1.3,7.5-2,11.2c-8.4,0-16.7,0-25.1,0c2.5-14.7,4.7-29.4,7.2-44.1
			c4.2,0,8.5,0,12.7,0C383.5,30.3,381.2,41.2,379.6,52.3L379.6,52.3z"/>
		<path d="M377.2,84.2V98c0,1.2-0.9,2.1-2,2.1h-9.3c-3.8,0-6.9-3.2-6.9-7.2v-8.7h4v8.7c0,1.6,1.3,3,2.8,3h7.3V84.2H377.2z"/>
		<polygon points="370.8,19.4 370.2,22.7 345.8,19.4 		"/>
		<polygon points="369.6,25.7 369.1,29.1 344.7,25.7 		"/>
		<polygon points="368.5,33.2 367.9,36.6 343.6,33.2 		"/>
		<polygon points="367.4,39.6 366.8,42.9 342.4,39.6 		"/>
		<polygon points="366.2,45.9 365.7,49.3 341.3,45.9 		"/>
		<polygon points="365.1,52.3 364.5,55.7 340.2,52.3 		"/>
		<polygon points="364,59.8 363.4,63.1 339,59.8 		"/>
		<path d="M354.9,87.8V103c0,2.6-2,4.6-4.4,4.6h-8.7v-4.2h8.7c0.2,0,0.4-0.2,0.4-0.4V87.8c0-0.2-0.2-0.4-0.4-0.4h-9.4
			c-0.2,0-0.4,0.2-0.4,0.4v7.7c0,0.2,0.2,0.4,0.4,0.4h7.7v4.3h-7.7c-2.4,0-4.4-2.1-4.4-4.6v-7.7c0-2.6,2-4.6,4.4-4.6h9.4
			C352.9,83.2,354.9,85.2,354.9,87.8z"/>
		<polygon points="341.9,20.4 325.8,50.7 324.1,62.9 311.3,63 312.6,50.1 306.7,19.4 320.7,19.4 322,35.5 328.2,20.4 		"/>
		<path d="M332.6,89v5.4c0,3.2-2.5,5.8-5.5,5.8h-6.4c-3.5,0-6.2-3.3-5.4-7.1c0.5-2.7,3-4.6,5.6-4.6h6.7v4.2h-6.5
			c-0.8,0-1.4,0.7-1.4,1.6s0.6,1.6,1.4,1.6h6c0.8,0,1.5-0.7,1.5-1.6V89c0-0.9-0.7-1.6-1.5-1.6h-8.6v-4.2h8.6
			C330.2,83.2,332.6,85.8,332.6,89z"/>
		<path d="M307.4,83.2c3.5,0,6.2,3.3,5.4,7.1c-0.5,2.7-3,4.6-5.6,4.6h-7v-4.2h7.4c0.8-0.1,1.5-0.8,1.5-1.7s-0.7-1.6-1.5-1.5h-6.9
			c-0.8-0.1-1.5,1.5-1.5,1.5v5.4c0,0.9,0.7,1.6,1.5,1.6h6.6v4.3h-6.6c-3.1,0-5.5-2.6-5.5-5.8V89c0-3.2,2.5-5.8,5.5-5.8L307.4,83.2
			L307.4,83.2z"/>
		<polygon points="310.4,45.9 311,49.1 288,45.9 		"/>
		<polygon points="310.2,53.4 309.9,56.6 308.4,56.6 285.5,53.4 		"/>
		<polygon points="309.1,39.6 309.8,42.9 285.7,39.6 		"/>
		<polygon points="309.5,59.8 309.2,62.9 307.4,62.9 284.4,59.8 		"/>
		<polygon points="307.2,33.2 307.8,36.4 307.8,36.4 284.8,33.2 		"/>
		<polygon points="306.6,25.7 307.2,29.1 283,25.7 		"/>
		<polygon points="304.3,19.5 304.9,22.5 304.1,22.5 283.1,19.4 		"/>
		<path d="M292.2,95.8v4.3c-3.9,0-7.1-3.4-7.1-7.6V76.8h4v15.7C289.1,94.3,290.5,95.8,292.2,95.8L292.2,95.8z"/>
		<path d="M280,84.2V102c0,3.1-2.4,5.6-5.3,5.6h-6.8v-4.2h6.8c0.7,0,1.3-0.6,1.3-1.3V84.2H280L280,84.2z"/>
		<path d="M274,95.9v4.3h-6.8c-2.9,0-5.3-2.5-5.3-5.6V84.2h4v10.4c0,0.7,0.6,1.3,1.3,1.3H274z"/>
		<path d="M258.8,95.8v4.3c-3.9,0-7.1-3.4-7.1-7.6V76.8h4v15.7C255.7,94.3,257.1,95.8,258.8,95.8z"/>
		<path d="M247.7,77.8v4.2h-15.2v18.1h-4.1V80c0-1.2,0.9-2.1,2-2.1L247.7,77.8L247.7,77.8z"/>
		<polygon points="246.5,19.4 246,22.7 221.6,19.4 		"/>
		<rect x="235.5" y="87.4" width="10.1" height="4.2"/>
		<polygon points="245.4,25.7 244.8,29.1 220.5,25.7 		"/>
		<path d="M240.9,63.4c2.6-14.6,5-29.3,7.4-43.9c4.2-0.1,8.4-0.1,12.5-0.1c-0.9,6.1-2.2,12.1-3,18.2c3.8-6,6.5-12.8,10.9-18.2
			c4.3-0.1,8.7,0,13-0.2c-4.2,7.3-8.7,14.4-13.1,21.6c2,7.5,4.1,15,6.1,22.4c-4.5,0-9,0-13.5,0c-1.6-6.5-3-13-4.6-19.5
			c-1.2,6.5-2,13-3.1,19.5C249.4,63.5,245.1,63.5,240.9,63.4L240.9,63.4z"/>
		<polygon points="244.2,33.2 243.7,36.6 219.3,33.2 		"/>
		<polygon points="243.1,39.6 242.6,42.9 218.2,39.6 		"/>
		<polygon points="242,45.9 241.4,49.3 217.1,45.9 		"/>
		<polygon points="240.8,52.3 240.3,55.7 215.9,52.3 		"/>
		<polygon points="239.7,59.8 239.2,63.1 214.8,59.8 		"/>
		<path d="M212.2,80v20.2h-4v-5.3h-13.1v5.3H191V87.9c0-5.5,4.3-10,9.6-10h9.7C211.3,77.8,212.2,78.8,212.2,80L212.2,80z
			 M208.2,90.6v-8.5h-7.6c-3,0-5.5,2.6-5.5,5.8v2.7H208.2z"/>
		<path d="M209.2,42c1.5,8.3-2.1,18.8-10.5,21.3c-8.3,1.8-16.9,1.1-25.2-0.7c1.1-3.9,2.4-7.8,3.7-11.7c5.8,1.9,12,1.8,18,1.2
			c0.1-1.1,0.2-2.2,0.4-3.4c-5.2-0.9-11.3-0.3-15.3-4.3c-3.2-4-1.9-9.5-0.7-14c1.2-4.6,3.9-9.2,8.5-10.6c7.7-2.5,16-1.3,23.8,0.3
			c-1.1,3.6-2.3,7.3-3.3,11c-5.2-0.6-10.4-1.4-15.6-0.5c-0.1,1.2-1.1,3.8,1,3.6C199.4,35,207,35.4,209.2,42L209.2,42z"/>
		<path d="M188,19.4c-0.6,0.1-1.2,0.3-1.8,0.5c-1.7,0.5-3.1,1.5-4.3,2.7l-23.3-3.2H188z"/>
		<path d="M183.4,48.5c0,0.2,0,0.4-0.1,0.6H177l-23-3.2h25.4C180,47.1,182,48.2,183.4,48.5L183.4,48.5z"/>
		<path d="M154.7,25.7h24.8c-0.6,1-1,2.1-1.4,3.2L154.7,25.7z"/>
		<path d="M177.2,42.9l-24-3.4h23.3C176.5,40.7,176.8,41.8,177.2,42.9L177.2,42.9z"/>
		<path d="M152.8,33.2h23.6c-0.2,1-0.5,2.1-0.6,3.2h-0.1L152.8,33.2z"/>
		<path d="M174.8,52.3c-0.4,1.1-0.7,2.1-1.1,3.2l-23.2-3.2H174.8z"/>
		<path d="M172.8,62.9l-22.3-3.1h22c-0.3,1-0.6,1.9-0.9,2.9C172.1,62.7,172.5,62.8,172.8,62.9L172.8,62.9z"/>
	</g>
	<g>
		<path class="st1" d="M210.2,77.8h-9.7c-5.3,0-9.6,4.5-9.6,10v12.3h4.1v-5.3h13.1v5.3h4V80C212.2,78.8,211.3,77.8,210.2,77.8
			L210.2,77.8z"/>
		<path class="st1" d="M195.1,90.6v-2.7c0-3.2,2.5-5.8,5.5-5.8h7.6v8.5H195.1z"/>
		<path class="st1" d="M228.4,80v20.2h4.1V82.1h15.2v-4.2h-17.2C229.3,77.8,228.4,78.8,228.4,80L228.4,80z"/>
		<rect x="235.5" y="87.4" class="st1" width="10.1" height="4.2"/>
		<path class="st1" d="M255.7,92.5V76.8h-4v15.7c0,4.2,3.2,7.6,7.1,7.6v-4.3C257.1,95.8,255.7,94.3,255.7,92.5z"/>
		<path class="st1" d="M289.1,92.5V76.8h-4v15.7c0,4.2,3.2,7.6,7.1,7.6v-4.3C290.5,95.8,289.1,94.3,289.1,92.5L289.1,92.5z"/>
		<path class="st1" d="M274,95.9h-6.8c-0.7,0-1.3-0.6-1.3-1.3V84.2h-4v10.4c0,3.1,2.4,5.6,5.3,5.6h6.8V95.9z"/>
		<path class="st1" d="M276,102c0,0.7-0.6,1.3-1.3,1.3h-6.8v4.2h6.8c2.9,0,5.3-2.5,5.3-5.6V84.2h-4L276,102L276,102z"/>
		<path class="st1" d="M307.4,83.2h-6.7c-3.1,0-5.5,2.6-5.5,5.8v5.4c0,3.2,2.5,5.8,5.5,5.8h6.6v-4.3h-6.6c-0.8,0-1.5-0.7-1.5-1.6
			v-5.4c0,0,0.6-1.6,1.5-1.5h6.9c0.8-0.1,1.5,0.6,1.5,1.5s-0.7,1.6-1.5,1.7h-7.4v4.2h7c2.7,0,5.1-1.9,5.6-4.6
			C313.6,86.5,310.9,83.2,307.4,83.2L307.4,83.2z"/>
		<path class="st1" d="M393.4,83.2h-6.7c-3.1,0-5.5,2.6-5.5,5.8v5.4c0,3.2,2.5,5.8,5.5,5.8h6.6v-4.3h-6.6c-0.8,0-1.5-0.7-1.5-1.6
			v-5.4c0,0,0.7-1.6,1.6-1.5h6.9c0.8-0.1,1.5,0.6,1.5,1.5s-0.7,1.6-1.5,1.7h-7.5v4.2h7c2.7,0,5.1-1.9,5.6-4.6
			C399.6,86.5,396.9,83.2,393.4,83.2L393.4,83.2z"/>
		<path class="st1" d="M327.1,83.2h-8.6v4.2h8.6c0.8,0,1.5,0.7,1.5,1.6v5.4c0,0.9-0.7,1.6-1.5,1.6h-6c-0.8,0-1.4-0.7-1.4-1.6
			s0.6-1.6,1.4-1.6h6.5v-4.2h-6.7c-2.7,0-5.1,1.9-5.6,4.6c-0.7,3.8,2,7.1,5.4,7.1h6.4c3.1,0,5.5-2.6,5.5-5.8V89
			C332.6,85.8,330.2,83.2,327.1,83.2z"/>
		<path class="st1" d="M544.6,83.2H536v4.2h7.6c0.8,0,1.5,0.7,1.5,1.6v5.4c0,0.9-0.7,1.6-1.5,1.6h-6c-0.8,0-1.4-0.7-1.4-1.6
			s0.6-1.6,1.4-1.6h6.5v-4.2h-6.7c-2.7,0-5.1,1.9-5.6,4.6c-0.8,3.8,2,7.1,5.4,7.1h7.4c3.1,0,5.5-2.6,5.5-5.8V89
			C550.1,85.8,547.7,83.2,544.6,83.2z"/>
		<path class="st1" d="M350.5,83.2h-9.4c-2.4,0-4.4,2.1-4.4,4.6v7.7c0,2.6,2,4.6,4.4,4.6h7.7v-4.3h-7.7c-0.2,0-0.4-0.2-0.4-0.4v-7.7
			c0-0.2,0.2-0.4,0.4-0.4h9.4c0.2,0,0.4,0.2,0.4,0.4V103c0,0.2-0.2,0.4-0.4,0.4h-8.7v4.2h8.7c2.4,0,4.4-2.1,4.4-4.6V87.8
			C354.9,85.2,352.9,83.2,350.5,83.2z"/>
		<path class="st1" d="M373.1,95.9h-7.3c-1.6,0-2.8-1.3-2.8-3v-8.7h-4v8.7c0,4,3.1,7.2,6.9,7.2h9.3c1.1,0,2-1,2-2.1V84.2h-4V95.9z"
			/>
		<path class="st1" d="M434,84.2h-9.3c-1.1,0-2,1-2,2.1v13.8h4V88.5h7.3c1.6,0,2.8,1.3,2.8,3v8.7h4v-8.7
			C440.9,87.4,437.8,84.2,434,84.2L434,84.2z"/>
		<rect x="413.6" y="77.8" class="st1" width="4" height="22.3"/>
		<path class="st1" d="M523,84.2h-9.3c-1.1,0-2,1-2,2.1v13.8h4V88.5h7.3c1.6,0,2.8,1.3,2.8,3v8.7h4v-8.7
			C529.9,87.4,526.8,84.2,523,84.2L523,84.2z"/>
		<rect x="502.6" y="83.2" class="st1" width="4" height="17"/>
		<rect x="480.4" y="75.7" class="st1" width="4" height="24.5"/>
		<path class="st1" d="M456.1,85.3v7.4c0,4.1,3.2,7.5,7.1,7.5h12.1v-4.3h-12.1c-1.7,0-3.1-1.4-3.1-3.2v-7.4c0-1.8,1.4-3.2,3.1-3.2
			h12.1v-4.2h-12.1C459.2,77.8,456.1,81.2,456.1,85.3L456.1,85.3z"/>
		<path class="st1" d="M490.4,83.2h-5v4.2h5c1.7,0,3.1,1.5,3.1,3.2v9.5h4v-9.5C497.5,86.5,494.4,83.2,490.4,83.2z"/>
		<path class="st1" d="M504.5,80.3c1.1,0,2-1,2-2.1s-0.9-2.1-2-2.1s-2,1-2,2.1S503.3,80.3,504.5,80.3z"/>
		<path class="st1" d="M188,19.8c7.7-2.5,16-1.3,23.8,0.3c-1.1,3.6-2.3,7.3-3.3,11c-5.2-0.6-10.4-1.4-15.6-0.5
			c-0.1,1.2-1.1,3.8,1,3.6c5.6,0.7,13.2,1.2,15.4,7.8c1.5,8.3-2.1,18.8-10.5,21.3c-8.3,1.8-16.9,1.1-25.2-0.7
			c1.1-3.9,2.4-7.8,3.7-11.7c5.8,1.9,12,1.8,18,1.2c0.1-1.1,0.2-2.2,0.4-3.4c-5.2-0.9-11.3-0.3-15.3-4.3c-3.2-4-1.9-9.5-0.7-14
			C180.7,25.9,183.5,21.3,188,19.8L188,19.8z"/>
		<path class="st1" d="M248.3,19.5c4.2-0.1,8.4-0.1,12.5-0.1c-0.9,6.1-2.2,12.1-3,18.2c3.8-6,6.5-12.8,10.9-18.2
			c4.3-0.1,8.7,0,13-0.2c-4.2,7.3-8.7,14.4-13.1,21.6c2,7.5,4.1,15,6.1,22.4c-4.5,0-9,0-13.5,0c-1.6-6.5-3-13-4.6-19.5
			c-1.2,6.5-2,13-3.1,19.5c-4.2,0-8.5,0.1-12.7,0C243.5,48.8,245.9,34.2,248.3,19.5L248.3,19.5z"/>
		<polygon class="st1" points="306.7,19.4 320.7,19.4 322,35.5 328.2,20.4 341.9,20.4 325.8,50.7 324.1,62.9 311.3,63 312.6,50.1 		
			"/>
		<path class="st1" d="M372.4,19.3c4.2,0,8.5,0,12.7,0c-1.6,11-3.9,21.9-5.5,33c4.2-0.1,8.5-0.1,12.7-0.1c-0.7,3.8-1.3,7.5-2,11.2
			c-8.4,0-16.7,0-25.1,0C367.7,48.8,369.9,34,372.4,19.3L372.4,19.3z"/>
		<path class="st1" d="M428.5,19.3c4.2,0,8.5,0,12.7,0c-2.5,14.7-5,29.4-7.6,44.1c-4.1,0-8.2,0-12.3,0C423.6,48.7,426,34,428.5,19.3
			z"/>
		<path class="st1" d="M476.1,19.4c4-0.2,8-0.1,12.1-0.1c2.6,6.1,5.8,12,7.5,18.6c1.3-6.1,2.1-12.4,3.3-18.5c4.3,0,8.6,0,12.9,0
			c-2.5,14.7-5.2,29.3-7.5,44.1c-4,0.1-8,0.1-12,0c-2.5-6.5-6.3-12.4-7.5-19.4c-1.4,6.4-2.1,13-3.5,19.4c-4.1,0-8.2,0-12.3,0
			C471.2,48.7,473.9,34.1,476.1,19.4L476.1,19.4z"/>
		<polygon class="st1" points="545.6,22.7 546.2,19.4 521.3,19.4 		"/>
		<polygon class="st1" points="544.5,29.1 545.1,25.7 520.1,25.7 		"/>
		<polygon class="st1" points="543.4,36.6 543.9,33.2 519,33.2 		"/>
		<polygon class="st1" points="542.2,42.9 542.8,39.6 517.9,39.6 		"/>
		<polygon class="st1" points="541.1,49.3 541.7,45.9 516.7,45.9 		"/>
		<polygon class="st1" points="540,55.7 540.5,52.3 515.6,52.3 		"/>
		<polygon class="st1" points="538.8,63.1 539.4,59.8 514.5,59.8 		"/>
		<polygon class="st1" points="474,22.7 474.6,19.4 449.6,19.4 		"/>
		<polygon class="st1" points="472.9,29.1 473.4,25.7 448.5,25.7 		"/>
		<polygon class="st1" points="471.7,36.6 472.3,33.2 447.4,33.2 		"/>
		<polygon class="st1" points="470.6,42.9 471.2,39.6 446.2,39.6 		"/>
		<polygon class="st1" points="469.5,49.3 470,45.9 445.1,45.9 		"/>
		<polygon class="st1" points="468.3,55.7 468.9,52.3 444,52.3 		"/>
		<polygon class="st1" points="467.2,63.1 467.8,59.8 442.8,59.8 		"/>
		<polygon class="st1" points="426.4,22.7 427,19.4 402,19.4 		"/>
		<polygon class="st1" points="425.2,29.1 425.8,25.7 400.9,25.7 		"/>
		<polygon class="st1" points="424.1,36.6 424.7,33.2 399.8,33.2 		"/>
		<polygon class="st1" points="423,42.9 423.6,39.6 398.6,39.6 		"/>
		<polygon class="st1" points="421.9,49.3 422.4,45.9 397.5,45.9 		"/>
		<polygon class="st1" points="420.7,55.7 421.3,52.3 396.4,52.3 		"/>
		<polygon class="st1" points="419.6,63.1 420.2,59.8 395.2,59.8 		"/>
		<polygon class="st1" points="370.2,22.7 370.8,19.4 345.8,19.4 		"/>
		<polygon class="st1" points="369.1,29.1 369.6,25.7 344.7,25.7 		"/>
		<polygon class="st1" points="367.9,36.6 368.5,33.2 343.6,33.2 		"/>
		<polygon class="st1" points="366.8,42.9 367.4,39.6 342.4,39.6 		"/>
		<polygon class="st1" points="365.7,49.3 366.2,45.9 341.3,45.9 		"/>
		<polygon class="st1" points="364.5,55.7 365.1,52.3 340.2,52.3 		"/>
		<polygon class="st1" points="363.4,63.1 364,59.8 339,59.8 		"/>
		<polygon class="st1" points="304.3,19.5 304.9,22.5 304.1,22.5 283.1,19.4 		"/>
		<polygon class="st1" points="307.2,29.1 283,25.7 306.6,25.7 		"/>
		<polygon class="st1" points="307.8,36.4 307.8,36.4 284.8,33.2 307.2,33.2 		"/>
		<polygon class="st1" points="309.8,42.9 285.7,39.6 309.1,39.6 		"/>
		<polygon class="st1" points="311,49.1 288,45.9 310.4,45.9 		"/>
		<polygon class="st1" points="310.2,53.4 309.9,56.6 308.4,56.6 285.5,53.4 		"/>
		<polygon class="st1" points="309.5,59.8 309.2,62.9 307.4,62.9 284.4,59.8 		"/>
		<polygon class="st1" points="246,22.7 246.5,19.4 221.6,19.4 		"/>
		<polygon class="st1" points="244.8,29.1 245.4,25.7 220.5,25.7 		"/>
		<polygon class="st1" points="243.7,36.6 244.2,33.2 219.3,33.2 		"/>
		<polygon class="st1" points="242.6,42.9 243.1,39.6 218.2,39.6 		"/>
		<polygon class="st1" points="241.4,49.3 242,45.9 217.1,45.9 		"/>
		<polygon class="st1" points="240.3,55.7 240.8,52.3 215.9,52.3 		"/>
		<polygon class="st1" points="239.2,63.1 239.7,59.8 214.8,59.8 		"/>
		<path class="st1" d="M188,19.4c-0.6,0.1-1.2,0.3-1.8,0.5c-1.7,0.5-3.1,1.5-4.3,2.7l-23.3-3.2H188z"/>
		<path class="st1" d="M179.5,25.7c-0.6,1-1,2.1-1.4,3.2l-23.4-3.2H179.5z"/>
		<path class="st1" d="M176.4,33.2c-0.2,1-0.5,2.1-0.6,3.2h-0.1l-23-3.2H176.4z"/>
		<path class="st1" d="M177.2,42.9l-24-3.4h23.3C176.5,40.7,176.8,41.8,177.2,42.9L177.2,42.9z"/>
		<path class="st1" d="M183.4,48.5c0,0.2,0,0.4-0.1,0.6H177l-23-3.2h25.4C180,47.1,182,48.2,183.4,48.5L183.4,48.5z"/>
		<path class="st1" d="M174.8,52.3c-0.4,1.1-0.7,2.1-1.1,3.2l-23.2-3.2H174.8z"/>
		<path class="st1" d="M172.8,62.9l-22.3-3.1h22c-0.3,1-0.6,1.9-0.9,2.9C172.1,62.7,172.5,62.8,172.8,62.9L172.8,62.9z"/>
		<path class="st1" d="M573.8,30.7l2-11.4c0,0-18.8,0-28.2,0c-0.5,3.9-1.3,7.7-2,11.5l-0.8,5l0,0.2l-2.9,17l-0.2,1.2
			c-0.5,3.1-0.9,6.1-1.5,9.2c9.4,0,18.8-0.1,28.2,0c0.8-3.8,1.3-7.6,2.1-11.3c-5.2,0-10.4,0-15.5,0c0.2-1.8,0.5-3.5,0.7-5.3
			c4.2,0,8.5-0.1,12.8,0.1c0.8-3.4,1.3-6.9,1.8-10.4c-4.3,0-8.5,0-12.8,0c0.4-2,0.8-3.9,1.1-5.9C563,30.6,573.8,30.7,573.8,30.7
			L573.8,30.7z"/>
	</g>
</g>
</svg>
