<?xml version="1.0" encoding="utf-8"?>
<!-- Generator: Adobe Illustrator 27.0.0, SVG Export Plug-In . SVG Version: 6.00 Build 0)  -->
<svg version="1.1" id="Layer_1" xmlns="http://www.w3.org/2000/svg" xmlns:xlink="http://www.w3.org/1999/xlink" x="0px" y="0px"
	 viewBox="0 0 600 200" style="enable-background:new 0 0 600 200;" xml:space="preserve">
<style type="text/css">
	.st0{fill:none;stroke:url(#SVGID_1_);stroke-width:4;stroke-linecap:round;stroke-linejoin:round;stroke-miterlimit:10;}
	
		.st1{fill:none;stroke:url(#SVGID_00000065787268533794460970000012264657050506086320_);stroke-width:4;stroke-linecap:round;stroke-linejoin:round;stroke-miterlimit:10;}
	
		.st2{fill:url(#SVGID_00000012472811528282034490000007971131801341798332_);stroke:url(#SVGID_00000147941037730618534870000006475830100505893516_);stroke-width:2;stroke-linecap:round;stroke-linejoin:round;stroke-miterlimit:10;}
	.st3{fill:none;stroke:#FFFFFF;stroke-width:4;stroke-linejoin:round;stroke-miterlimit:10;}
	.st4{fill:#FFFFFF;}
</style>
<g>
	<linearGradient id="SVGID_1_" gradientUnits="userSpaceOnUse" x1="10.1596" y1="115.3495" x2="126.3254" y2="115.3495">
		<stop  offset="0" style="stop-color:#46B4E8"/>
		<stop  offset="0.5025" style="stop-color:#42D7DF"/>
		<stop  offset="0.7544" style="stop-color:#42D5E0"/>
		<stop  offset="0.8503" style="stop-color:#43CEE2"/>
		<stop  offset="0.9195" style="stop-color:#44C2E5"/>
		<stop  offset="0.9756" style="stop-color:#45B1EA"/>
		<stop  offset="1" style="stop-color:#46A7ED"/>
	</linearGradient>
	<polygon class="st0" points="124.33,119.05 118.35,137.05 106.51,172.67 12.16,58.03 	"/>
	
		<linearGradient id="SVGID_00000170972022140692878400000012860486318758864775_" gradientUnits="userSpaceOnUse" x1="10.1596" y1="48.9439" x2="157.0502" y2="48.9439">
		<stop  offset="0" style="stop-color:#46B4E8"/>
		<stop  offset="0.5025" style="stop-color:#42D7DF"/>
		<stop  offset="1" style="stop-color:#46A7ED"/>
	</linearGradient>
	
		<polygon style="fill:none;stroke:url(#SVGID_00000170972022140692878400000012860486318758864775_);stroke-width:4;stroke-linecap:round;stroke-linejoin:round;stroke-miterlimit:10;" points="
		155.05,26.63 143.28,62.05 140.22,71.26 12.16,58.03 	"/>
	
		<linearGradient id="SVGID_00000104694177730463508910000007241699925877416583_" gradientUnits="userSpaceOnUse" x1="14.4443" y1="106.9824" x2="151.1866" y2="106.9824">
		<stop  offset="0" style="stop-color:#46B4E8"/>
		<stop  offset="0.5025" style="stop-color:#42D7DF"/>
		<stop  offset="1" style="stop-color:#46A7ED"/>
	</linearGradient>
	
		<linearGradient id="SVGID_00000009587849882637130810000016668577231965794180_" gradientUnits="userSpaceOnUse" x1="13.4443" y1="106.9824" x2="152.1866" y2="106.9824">
		<stop  offset="0" style="stop-color:#46B4E8"/>
		<stop  offset="0.5025" style="stop-color:#42D7DF"/>
		<stop  offset="1" style="stop-color:#46A7ED"/>
	</linearGradient>
	
		<path style="fill:url(#SVGID_00000104694177730463508910000007241699925877416583_);stroke:url(#SVGID_00000009587849882637130810000016668577231965794180_);stroke-width:2;stroke-linecap:round;stroke-linejoin:round;stroke-miterlimit:10;" d="
		M143.28,62.05l-3.06,9.21L15.88,56.07l-0.9,2.54l-0.53,2.86l109.88,57.58l-5.97,18c29.97,20.96,32.83,25.81,32.83,15.91
		S143.28,96.28,143.28,62.05z"/>
</g>
<g>
	<path class="st3" d="M209.25,146.88v-14.11c0-5.08,3.39-9.21,7.58-9.21h9.99v23.31"/>
	<line class="st3" x1="209.25" y1="138.03" x2="226.82" y2="138.03"/>
	<polyline class="st3" points="264.41,123.57 247.49,123.57 247.49,146.88 	"/>
	<line class="st3" x1="251.83" y1="133.79" x2="262.5" y2="133.79"/>
	<path class="st3" d="M270.68,119.62v18.33c0,3.49,2.33,6.32,5.21,6.32h0"/>
	<path class="st3" d="M304.19,119.62v18.33c0,3.49,2.33,6.32,5.21,6.32l0,0"/>
	<path class="st3" d="M281.41,127.83v12.41c0,2.23,1.49,4.03,3.32,4.03h6.57"/>
	<path class="st3" d="M295.4,127.83v20.39c0,2.23-1.49,4.03-3.32,4.03h-6.77"/>
	<path class="st3" d="M317.83,137.71h7.21c1.96,0,3.55-1.93,3.55-4.31l0,0c0-2.38-1.59-4.31-3.55-4.31h-6.96
		c-1.96,0-3.55,1.93-3.55,4.31v6.56c0,2.38,1.59,4.31,3.55,4.31h6.93"/>
	<path class="st3" d="M404.59,137.71h7.21c1.96,0,3.55-1.93,3.55-4.31l0,0c0-2.38-1.59-4.31-3.55-4.31h-6.96
		c-1.96,0-3.55,1.93-3.55,4.31v6.56c0,2.38,1.59,4.31,3.55,4.31h6.93"/>
	<path class="st3" d="M345.28,135.66h-6.93c-1.96,0-3.55,1.93-3.55,4.31l0,0c0,2.38,1.59,4.31,3.55,4.31h6.51
		c1.96,0,3.55-1.93,3.55-4.31v-6.56c0-2.38-1.59-4.31-3.55-4.31h-8.2"/>
	<path class="st3" d="M563.76,135.66h-6.93c-1.96,0-3.55,1.93-3.55,4.31l0,0c0,2.38,1.59,4.31,3.55,4.31h6.51
		c1.96,0,3.55-1.93,3.55-4.31v-6.56c0-2.38-1.59-4.31-3.55-4.31h-8.2"/>
	<path class="st3" d="M366.78,144.27h-7.29c-1.33,0-2.41-1.31-2.41-2.92v-8.77c0-1.61,1.08-2.92,2.41-2.92h8.91
		c1.33,0,2.41,1.31,2.41,2.92v17.07c0,1.61-1.08,2.92-2.41,2.92h-8.52"/>
	<path class="st3" d="M378.88,127.68v10.67c0,3.27,2.18,5.93,4.88,5.93h9.11v-16.6"/>
	<path class="st3" d="M457.55,146.56V135.9c0-3.27-2.18-5.93-4.88-5.93h-9.11v16.6"/>
	<line class="st3" x1="434.19" y1="121.12" x2="434.19" y2="146.56"/>
	<path class="st3" d="M546.74,146.56V135.9c0-3.27-2.18-5.93-4.88-5.93h-9.11v16.6"/>
	<line class="st3" x1="523.38" y1="127.12" x2="523.38" y2="146.56"/>
	<line class="st3" x1="501.28" y1="118.55" x2="501.28" y2="146.56"/>
	<path class="st3" d="M493.92,123.15h-11.91c-2.84,0-5.14,2.79-5.14,6.24v8.91c0,3.45,2.3,6.24,5.14,6.24h11.91"/>
	<path class="st3" d="M504.4,129.38h5.11c2.84,0,5.14,2.79,5.14,6.24v10.95"/>
	<ellipse class="st4" cx="523.38" cy="120.92" rx="1.95" ry="2.36"/>
</g>
<g>
	<g>
		<g>
			<path class="st4" d="M204.52,52.95c7.79-2.9,16.14-1.5,23.99,0.36c-1.14,4.26-2.3,8.51-3.36,12.79
				c-5.24-0.76-10.52-1.63-15.77-0.57c-0.06,1.39-1.11,4.43,1.01,4.23c5.62,0.87,13.26,1.35,15.46,9.05
				c1.51,9.68-2.13,21.93-10.6,24.77c-8.37,2.13-17.06,1.32-25.37-0.8c1.13-4.59,2.4-9.14,3.77-13.63
				c5.84,2.27,12.06,2.09,18.09,1.45c0.13-1.31,0.25-2.62,0.4-3.92c-5.21-1.04-11.35-0.32-15.46-5.05
				c-3.19-4.61-1.89-11.02-0.7-16.27C197.14,59.98,199.92,54.64,204.52,52.95z"/>
			<path class="st4" d="M265.29,52.61c4.21-0.16,8.42-0.1,12.63-0.07c-0.94,7.11-2.26,14.14-3.06,21.26
				c3.77-6.93,6.55-14.84,10.96-21.21c4.36-0.15,8.73-0.06,13.1-0.21c-4.28,8.47-8.75,16.8-13.18,25.15
				c2.02,8.73,4.16,17.41,6.18,26.12c-4.54,0.05-9.06,0.01-13.59,0.06c-1.64-7.54-3.02-15.17-4.6-22.73
				c-1.2,7.53-2.04,15.15-3.13,22.72c-4.26,0.06-8.53,0.07-12.79,0.05C260.39,86.72,262.86,69.68,265.29,52.61z"/>
			<polygon class="st4" points="324.11,52.49 338.25,52.56 339.5,71.25 345.79,52.37 359.94,52.38 343.13,88.93 341.34,103.71 
				328.75,103.73 330.08,88.64 			"/>
			<path class="st4" d="M390.31,52.37c4.25-0.05,8.51-0.04,12.76,0c-1.6,12.84-3.91,25.53-5.51,38.37c4.25-0.06,8.51-0.1,12.77-0.06
				c-0.68,4.36-1.29,8.73-2.03,13.07c-8.41,0.02-16.83,0.01-25.25,0C385.55,86.64,387.78,69.46,390.31,52.37z"/>
			<path class="st4" d="M446.78,52.35c4.27,0.01,8.54-0.02,12.82,0.02c-2.49,17.15-5.03,34.28-7.64,51.39
				c-4.14-0.02-8.28,0.01-12.42-0.05C441.87,86.59,444.3,69.46,446.78,52.35z"/>
			<path class="st4" d="M494.84,52.45c4.06-0.22,8.11-0.07,12.17-0.14c2.61,7.14,5.87,14.01,7.51,21.62
				c1.34-7.13,2.13-14.4,3.29-21.58c4.32-0.01,8.64-0.02,12.97,0.01c-2.55,17.1-5.27,34.16-7.55,51.32
				c-4.02,0.12-8.03,0.09-12.05,0.04c-2.47-7.54-6.32-14.47-7.52-22.56c-1.39,7.49-2.13,15.14-3.54,22.63
				c-4.12-0.06-8.25-0.04-12.37-0.02C489.83,86.61,492.59,69.58,494.84,52.45z"/>
		</g>
		<polygon class="st4" points="564.86,56.3 565.43,52.35 540.32,52.35 		"/>
		<polygon class="st4" points="563.72,64.08 564.29,60.14 539.18,60.14 		"/>
		<polygon class="st4" points="562.58,71.87 563.15,67.93 538.03,67.93 		"/>
		<polygon class="st4" points="561.44,79.66 562.01,75.72 536.89,75.72 		"/>
		<polygon class="st4" points="560.3,87.44 560.87,83.5 535.75,83.5 		"/>
		<polygon class="st4" points="559.15,95.23 559.72,91.29 534.6,91.29 		"/>
		<polygon class="st4" points="558.01,103.02 558.58,99.08 533.46,99.08 		"/>
		<polygon class="st4" points="492.68,56.3 493.25,52.35 468.13,52.35 		"/>
		<polygon class="st4" points="491.54,64.08 492.11,60.14 467,60.14 		"/>
		<polygon class="st4" points="490.39,71.87 490.96,67.93 465.85,67.93 		"/>
		<polygon class="st4" points="489.25,79.66 489.82,75.72 464.71,75.72 		"/>
		<polygon class="st4" points="488.12,87.44 488.68,83.5 463.57,83.5 		"/>
		<polygon class="st4" points="486.97,95.23 487.54,91.29 462.42,91.29 		"/>
		<polygon class="st4" points="485.83,103.02 486.4,99.08 461.28,99.08 		"/>
		<polygon class="st4" points="444.7,56.3 445.27,52.35 420.16,52.35 		"/>
		<polygon class="st4" points="443.57,64.08 444.13,60.14 419.02,60.14 		"/>
		<polygon class="st4" points="442.42,71.87 442.99,67.93 417.87,67.93 		"/>
		<polygon class="st4" points="441.28,79.66 441.85,75.72 416.73,75.72 		"/>
		<polygon class="st4" points="440.14,87.44 440.71,83.5 415.59,83.5 		"/>
		<polygon class="st4" points="438.99,95.23 439.56,91.29 414.44,91.29 		"/>
		<polygon class="st4" points="437.85,103.02 438.42,99.08 413.3,99.08 		"/>
		<polygon class="st4" points="388.08,56.3 388.65,52.35 363.53,52.35 		"/>
		<polygon class="st4" points="386.94,64.08 387.51,60.14 362.39,60.14 		"/>
		<polygon class="st4" points="385.79,71.87 386.36,67.93 361.24,67.93 		"/>
		<polygon class="st4" points="384.65,79.66 385.22,75.72 360.1,75.72 		"/>
		<polygon class="st4" points="383.51,87.44 384.08,83.5 358.97,83.5 		"/>
		<polygon class="st4" points="382.36,95.23 382.93,91.29 357.82,91.29 		"/>
		<polygon class="st4" points="381.22,103.02 381.79,99.08 356.68,99.08 		"/>
		<polygon class="st4" points="322.27,52.49 322.9,56.29 322.1,56.29 299.65,52.35 		"/>
		<polygon class="st4" points="324.62,64.05 300.25,60.14 323.97,60.14 		"/>
		<polygon class="st4" points="325.91,71.87 325.88,71.87 301.33,67.93 325.26,67.93 		"/>
		<polygon class="st4" points="327.2,79.6 302.93,75.72 326.54,75.72 		"/>
		<polygon class="st4" points="328.45,87.22 305.28,83.5 327.84,83.5 		"/>
		<polygon class="st4" points="328.4,91.81 328.05,95.76 326.48,95.76 301.95,91.81 		"/>
		<polygon class="st4" points="327.7,99.8 327.35,103.73 325.44,103.73 300.9,99.8 		"/>
		<polygon class="st4" points="262.9,56.3 263.47,52.35 238.36,52.35 		"/>
		<polygon class="st4" points="261.77,64.08 262.34,60.14 237.22,60.14 		"/>
		<polygon class="st4" points="260.62,71.87 261.19,67.93 236.07,67.93 		"/>
		<polygon class="st4" points="259.48,79.66 260.05,75.72 234.93,75.72 		"/>
		<polygon class="st4" points="258.34,87.44 258.91,83.5 233.79,83.5 		"/>
		<polygon class="st4" points="257.19,95.23 257.76,91.29 232.64,91.29 		"/>
		<polygon class="st4" points="256.05,103.02 256.62,99.08 231.5,99.08 		"/>
		<path class="st4" d="M204.52,52.35c-0.61,0.17-1.22,0.37-1.82,0.59c-1.68,0.62-3.13,1.73-4.33,3.17l-23.45-3.76H204.52z"/>
		<path class="st4" d="M195.97,59.91c-0.57,1.2-1.04,2.48-1.4,3.79l-23.63-3.79H195.97z"/>
		<path class="st4" d="M193.58,68c-0.27,1.29-0.49,2.61-0.61,3.94h-0.08L168.34,68H193.58z"/>
		<path class="st4" d="M193.63,79.25l-24.22-3.9h23.47C192.95,76.69,193.19,78.01,193.63,79.25z"/>
		<path class="st4" d="M200.79,86.67c-0.03,0.25-0.05,0.51-0.08,0.76h-6.75l-24.55-3.94h27.07
			C197.18,84.98,199.3,86.32,200.79,86.67z"/>
		<path class="st4" d="M191.18,91.32c-0.38,1.24-0.74,2.49-1.09,3.74l-23.33-3.74H191.18z"/>
		<path class="st4" d="M189.24,103.07l-22.49-3.62h22.15c-0.3,1.1-0.58,2.22-0.86,3.33C188.45,102.88,188.84,102.98,189.24,103.07z"
			/>
	</g>
	<path class="st4" d="M593.25,65.59l2.06-13.23c0,0-18.94,0.06-28.42,0.04c-0.52,4.49-1.27,8.95-1.96,13.43l-0.86,5.81l-0.03,0.27
		l-2.9,19.81l-0.2,1.39c-0.49,3.58-0.89,7.17-1.56,10.68c9.47,0.05,18.95-0.09,28.43-0.04c0.81-4.37,1.36-8.8,2.11-13.17
		c-5.23-0.04-10.45-0.01-15.67-0.01c0.21-2.07,0.46-4.14,0.68-6.2c4.28-0.05,8.56-0.09,12.84,0.07c0.76-4,1.33-8.05,1.78-12.11
		c-4.3-0.02-8.59,0.04-12.9,0.02c0.39-2.27,0.76-4.54,1.1-6.82C582.4,65.55,593.25,65.59,593.25,65.59z"/>
</g>
</svg>
